/* XPM */
static char *_099_c3bd17c2de2f4cbbf0dea13146493f499e4287e886c9e0479d53e75e0db490cb[] = {
/* columns rows colors chars-per-pixel */
"64 64 256 2 ",
"   c black",
".  c #0000A8",
"X  c #00A800",
"o  c #00A8A8",
"O  c #A80000",
"+  c #A800A8",
"@  c #A85400",
"#  c gray66",
"$  c gray33",
"%  c #5454FC",
"&  c #54FC54",
"*  c #54FCFC",
"=  c #FC5454",
"-  c #FC54FC",
";  c #FCFC54",
":  c gray99",
">  c #ECECEC",
",  c gainsboro",
"<  c #D0D0D0",
"1  c #C0C0C0",
"2  c #B4B4B4",
"3  c gray66",
"4  c #989898",
"5  c gray55",
"6  c #7C7C7C",
"7  c gray44",
"8  c #646464",
"9  c gray33",
"0  c #484848",
"q  c gray22",
"w  c #2C2C2C",
"e  c #202020",
"r  c #FC0000",
"t  c #EC0000",
"y  c #E00000",
"u  c #D40000",
"i  c #C80000",
"p  c #BC0000",
"a  c #B00000",
"s  c #A40000",
"d  c #980000",
"f  c #880000",
"g  c #7C0000",
"h  c #700000",
"j  c #640000",
"k  c #580000",
"l  c #4C0000",
"z  c #400000",
"x  c #FCD8D8",
"c  c #FCB8B8",
"v  c #FC9C9C",
"b  c #FC7C7C",
"n  c #FC5C5C",
"m  c #FC4040",
"M  c #FC2020",
"N  c #FC0000",
"B  c #FCA85C",
"V  c #FC9840",
"C  c #FC8820",
"Z  c #FC7800",
"A  c #E46C00",
"S  c #CC6000",
"D  c #B45400",
"F  c #9C4C00",
"G  c #FCFCD8",
"H  c #FCFCB8",
"J  c #FCFC9C",
"K  c #FCFC7C",
"L  c #FCF85C",
"P  c #FCF440",
"I  c #FCF420",
"U  c #FCF400",
"Y  c #E4D800",
"T  c #CCC400",
"R  c #B4AC00",
"E  c #9C9C00",
"W  c #848400",
"Q  c #706C00",
"!  c #585400",
"~  c #404000",
"^  c #D0FC5C",
"/  c #C4FC40",
"(  c #B4FC20",
")  c #A0FC00",
"_  c #90E400",
"`  c #80CC00",
"'  c #74B400",
"]  c #609C00",
"[  c #D8FCD8",
"{  c #BCFCB8",
"}  c #9CFC9C",
"|  c #80FC7C",
" . c #60FC5C",
".. c #40FC40",
"X. c #20FC20",
"o. c #00FC00",
"O. c #00FC00",
"+. c #00EC00",
"@. c #00E000",
"#. c #00D400",
"$. c #04C800",
"%. c #04BC00",
"&. c #04B000",
"*. c #04A400",
"=. c #049800",
"-. c #048800",
";. c #047C00",
":. c #047000",
">. c #046400",
",. c #045800",
"<. c #044C00",
"1. c #044000",
"2. c #D8FCFC",
"3. c #B8FCFC",
"4. c #9CFCFC",
"5. c #7CFCF8",
"6. c #5CFCFC",
"7. c #40FCFC",
"8. c #20FCFC",
"9. c #00FCFC",
"0. c #00E4E4",
"q. c #00CCCC",
"w. c #00B4B4",
"e. c #009C9C",
"r. c #008484",
"t. c #007070",
"y. c #005858",
"u. c #004040",
"i. c #5CBCFC",
"p. c #40B0FC",
"a. c #20A8FC",
"s. c #009CFC",
"d. c #008CE4",
"f. c #007CCC",
"g. c #006CB4",
"h. c #005C9C",
"j. c #D8D8FC",
"k. c #B8BCFC",
"l. c #9C9CFC",
"z. c #7C80FC",
"x. c #5C60FC",
"c. c #4040FC",
"v. c #2024FC",
"b. c #0004FC",
"n. c #0000FC",
"m. c #0000EC",
"M. c #0000E0",
"N. c #0000D4",
"B. c #0000C8",
"V. c #0000BC",
"C. c #0000B0",
"Z. c #0000A4",
"A. c #000098",
"S. c #000088",
"D. c #00007C",
"F. c #000070",
"G. c #000064",
"H. c #000058",
"J. c #00004C",
"K. c #000040",
"L. c #282828",
"P. c #FCE034",
"I. c #FCD424",
"U. c #FCCC18",
"Y. c #FCC008",
"T. c #FCB400",
"R. c #B420FC",
"E. c #A800FC",
"W. c #9800E4",
"Q. c #8000CC",
"!. c #7400B4",
"~. c #60009C",
"^. c #500084",
"/. c #440070",
"(. c #340058",
"). c #280040",
"_. c #FCD8FC",
"`. c #FCB8FC",
"'. c #FC9CFC",
"]. c #FC7CFC",
"[. c #FC5CFC",
"{. c #FC40FC",
"}. c #FC20FC",
"|. c #FC00FC",
" X c #E000E4",
".X c #C800CC",
"XX c #B400B4",
"oX c #9C009C",
"OX c #840084",
"+X c #6C0070",
"@X c #580058",
"#X c #400040",
"$X c #FCE8DC",
"%X c #FCE0D0",
"&X c #FCD8C4",
"*X c #FCD4BC",
"=X c #FCCCB0",
"-X c #FCC4A4",
";X c #FCBC9C",
":X c #FCB890",
">X c #FCB080",
",X c #FCA470",
"<X c #FC9C60",
"1X c #F0945C",
"2X c #E88C58",
"3X c #DC8854",
"4X c #D08050",
"5X c #C87C4C",
"6X c #BC7848",
"7X c #B47044",
"8X c #A86840",
"9X c #A0643C",
"0X c #9C6038",
"qX c #905C34",
"wX c #885830",
"eX c #80502C",
"rX c #744C28",
"tX c #6C4824",
"yX c #5C4020",
"uX c #543C1C",
"iX c #483818",
"pX c #403018",
"aX c #382C14",
"sX c #28200C",
"dX c #600064",
"fX c #006464",
"gX c #006060",
"hX c #00001C",
"jX c #00002C",
"kX c #302410",
"lX c #480048",
"zX c #500050",
"xX c #000034",
"cX c gray11",
"vX c #4C4C4C",
"bX c gray36",
"nX c gray25",
"mX c gray19",
"MX c #343434",
"NX c #D8F4F4",
"BX c #B8E8E8",
"VX c #9CDCDC",
"CX c #74C8C8",
"ZX c #48C0C0",
"AX c #20B4B4",
"SX c #20B0B0",
"DX c #00A4A4",
"FX c #009898",
"GX c #008C8C",
"HX c #008484",
"JX c #007C7C",
"KX c #007878",
"LX c #007474",
"PX c #007070",
"IX c #006C6C",
"UX c #980088",
/* pixels */
"            cXw nX            cXcXe L.e w L.mXmXw e   0       cXw vXvX7 6 7 8 8 w   cX      cXcXcXw nXq nXvXnXq                 ",
"            cXq nXcX          e e w L.L.L.mXmXnXq L.e w       cXq $ bX7 7 7 8 bXMX  q     cXw cXe w q nXnXvX0 MX            cX  ",
"cX            w cXcX        cXcXcXcXcX  w mXe L.e w 0     cXe q q vX8 7 8 vXvXvXq   cX    nXvX  cXe w w q nXq w cX          cX  ",
"cXcX                          cX        cXcXcXcXL.cXL.cX  cXe w q nXnXnXMXw w q MX        w nXw   cXcXcXcXw e   w w           cX",
"            cX  cXcXnXcX              cX      cXe cXcXcX  cXe e w w e cXcX  e w cX          cX      cX  cX      cXcX            ",
"                cX  cX                        cX    cX  w   cXcXcXcX        cX              cXcX    cXcXcX          cX  cXcXcX  ",
"L.cX      w cX      cXcXe e w MX            cXcX  cXcXq bX0 cX              cXcX  e 0 0 w         cXmX0 nXcX    cXw mXcXcXmXw mX",
"w e       cXcX      e w cXw MXq cX    cX    cXcXe w q nX$ vXMX    cXcXw w     cXe MXnX8 nXcXcX      e mXnX      cXnXq e cXL.w cX",
"e                 cXw cXw cXcXw       cX        cXcXw w w w e       cXw MXcX  cXcXe w w cX  nX  cX  L.mXw         L.L.    cXe cX",
"e                                               cX  cXcX              cXcX                  cX  cX  cXcX                      cX",
"e w nXq e         cX    cXw MXw nXvX$ $ MXw cXcX            cXe L.mX          cXcXcXcXcXcX      cXw e   cXe w w cX        cXcXcX",
"  cXe L.e       e mX  cXe w nXq nXvXbXvXMXe               cXcXcXe cX    cXcXq vX$ bX$ bXbXvXq   e q vX  cXcXw cX          cXcXcX",
"      cX        cXcX  cXcX  cXe w w w e             cX        cXe e e       q nX0 $ $ 8 6 7 0   cXcXcX                    cX    ",
"nX  cXe e w q MXMXq 0   cX  cXcX    e e e cX        cXcX    cX    cXcX    cXw MXMXq w q q nXw     cXcXcXcX    w w q vXvXbX8 bXbX",
"7 w w cXcXw MXq nX$ 7 nX8 8 q     cXcXL.e cX                                cXcXcX          cX  cXw w q nXcXcXw q nXnX$ vX$ 8 bX",
"nXMXe cXcXcXcXw MXnX7 q q $ nXcX  cXcX          cX  e w q 0 $ vX$ vXvXvXq cXcX  cXe cXL.  cXnXcXcXcXe e e cX  cXw q q vXq q 0 vX",
"MX  w cXcX  cXcXcXw cX      cXcX  cXcXcX        e   cXq 0 0 nX$ bX8 6 8 $ w e cXw mXmXmXL.  cX                cXcXw MXw cXe w w ",
"bX8 bX$ q cX  cX    cX  e MXMXMXnXvXbXvX0 q cX      cXMX0 0 nX0 vX$ $ vXq w e cXcXw q nXnXw   cXcXcXcX        cXcXL.cX    cXMXnX",
"7 7 6 6 6 8 bXvXcX  cXcXe w MX0 nXnX$ vX$ $ w       cXw w nXnXnXnXnXnXw w cX  cXe MXq MXq nXw cX  cX    w w cXe 0 $ q   cXq $ $ ",
"q nXbXbX7 vXbXnXe     w cXe q q nXq MXnXvXq cX        cXw q q q w e MXq e cX  cXcXcXe e cXw cX  cXcXe L.mXq L.cXw nXq cXcXMXMXMX",
"cX  cXe e cXe cX      cXcXcXcXcXw w w w e cX      mXcX  cXcXe e cXcXMXMXe     cXcX    cXcX  cX    cXcXcXe L.cX    cXe cXcXcXw w ",
"        cXcX  cX          cXe cXcXcXcXcXcX        e           cX  cXcXcXe                 w             cXcX        e           ",
"cXcX    cXcXcXcXcXcX          cXcX      cXcXcX                              L.mX0 $ 0 cX  cXcXcXe e e cX          cXmXmXe     cX",
"            cX  cXcX    cXcX  cX      cXcXcXe e   cXmXL.L.cXw cX    cXcX    cXL.0 q cXe cXw nXnXvXnX0 vX0 q e   cXw L.cXcX      ",
"cXcXw w cX        cX                      cXcXcXcX  MXmXe L.mXcX              cXcX  cXw cXw e MXnXq q q q vXnXw cXmXcXcXcXcXcXcX",
"vXbX8 8 $ vXw e               cX                  e w nXnXvXbXbXnXw     q $ bXbXcX  cXcXcXcXcXcXw w w w w MXMXnXcXL.  cXq q nXnX",
"0 $ 8 8 8 bXq     w cXe w q q nXw cX            cXcXw w q vXbX8 vXbX$ cXcXnX$ nX    cXcXcX    cXcXcXcXe e e cXe       cXe MXnXnX",
"$ 0 vX8 8 bX0   cXcXe MXe e w MXq q cX          cX  cXcXcXcXw q q MXnX      cX                    cX    cXcXcX        cXcXe w nX",
"q nX0 bX8 bXnX    cXcXe MXcXcXw w w cX  cX        cXcXcXcXcXe w cXw q     e L.w w mX0 w L.  cX      cXcXw w w           cXcXcXe ",
"w MXMXMXnXw MX    cXe cXcXcXcXcXw cX  cXq     e w cX  cXcXcXcX  cXcXw     cXcXe L.mXmXq L.L.w cX    cXMX$ 7 $ w   cXcX        cX",
"cXcXcXcXw e cX                                e cXe   cXcXcXcXcXw cXcX        cXcXcXe L.cXcXw   cXe cXw nX8 vXw   cXw           ",
"    cX  cXcX  cX      cX            cXw cXcX            cXcX                                    cXcXcXw q nXq w                 ",
"            cXnXcXcXnXnXw   cX        cXcXcXcXcXcX                  cXcXq w w w cX    cXcXe     cXcXcXcXw e                     ",
"w mXL.e     cXcXe w q bXnXcX        cXe cXcXcXq MXe     cXcX    cXcXw cXw w nXnXnX    cXcXcXcXw q w cXw q nXcX              cXcX",
"nX0 nXmXe   cX  e q q nXMXcX          cX    cXe nXq w cX            cXcXw w cXw q     w nXq q w w cXcXw w nX            e mXmXmX",
"nX0 w L.cX        e q MXw cX                    cXcXcXq e             cXcXcXcXcXcX    cXcXcXcXcX            cXcXw cXcX  L.L.e L.",
"$ mXcX        cX    cXe cXcXcX                  cX    e     cX            w nXcX      e 0 q L.    w     w MXq q nXnXq w cXcXe e ",
"    cXcXe e cX      cXcXcXcXcXw e cXcX                  cXw nXnXnXnXMXcX          cXcXL.$ 0 mX          e MXq nXnXnXMXw     cXcX",
"cXcXe w w nXw   cXe nXvXnXnXvX8 8 bXbXbX7 7 $ q cX    MXvXvX7 6 6 6 4 7 $ MXcX    cXcXw mXnXmX      cXnXcXw MXq q w cXcX  cXcX  ",
"cX  w w e L.L.cXcXw w q q q q q nXnXnXnX0 vXbXbXcXe cXnXvX0 bX8 8 bXbXbXbX$ q cX    cXL.L.cXcX      cXw   cXe e cXcX            ",
"    e e cXcXcXcX  w w w q w q w w w MXq MXMXnXvX  nXcXMXq q nXnXnXnXnXnXnX0 MXcXcX    cXcX          cXw cX  cXcXcX      cXcX    ",
"            cX      cXe w w cXe   cXe w cXw MXe   cX  e w w q q MXMXMXMXMXq e cXcX        cXq   w w   cX    cXw     cXcXw cX    ",
"                              cX    cX  cXcXe   cXcXcX    cXe e w e e w e e cXcXcX        cXcX  w cX                  cXcX      ",
"      w     cXw w w w w e cXw w q cX      cX    cXw w cX            cXcX  cXcXw q q w                 cXcX                      ",
"      cX    cXw w w w w w w nXq bXcX      cX  cXcXnXw w cX        w cXcXe w nXnXnXnX0 cXcXw   cXw     cXnXMXe cX    cXcXcX  cX  ",
"                cX    cXcXcXcXcXe               cXcX            cXw q cXw w MXq q q nXw       nXq     w nXMXe cX                ",
"cXcXcXq q w MXcX  cX  cXcXw cXcXcX    cX  cXcXcX    cXcXcXcXcX    cXw cXe e e w e cXcX  cX    cX                cXcX            ",
"$ 8 8 6 5 4 7 vXcX  w nX8 7 7 7 bX8 7 6 6 $ w             cXcXcXe cXcX                    cXcX      cXcX  cXcXL.L.L.L.mXmXcX  cX",
"nXvXbX8 8 8 bX$ e cXnXnX$ bXbXbXbX8 6 6 6 5 nXq 8 0 cX  e cXe L.L.L.w w       cXw cXcXcXe w w cXcX      cXcXL.cXcXe L.L.L.e   cX",
"w q q q nXnXnX$ cXcXw MXnXnXvXvXbXbXbX6 8 7 nXw bX8     cX    cXw L.L.nX        cXw cXcXw w cXcXcXcX      cX      cXcXcXe cX  cX",
"nXnXq q q nX$ q   cXw MXMXq nXq nXnXnX$ $ 7 q e q vX        cX      cXcX        cXcXcXcXcXcXcX      q                 cXcXcX    ",
"q w       cX    cXcXcXcXw w nXw w nXvX8 bX0 w w MXw                     cX                        cXcXcX                cXw w w ",
"6 7 vXMXcXcX0 bXmXcX    e e       cX      e cX          cXcXcXcXcXcXcX      w cXcXw w w q w nXq vX$ $ $ MXcX    cXw w q bX8 8 7 ",
"6 6 bXnXMXcXmXbX0 cX  cXw w w q q w w cX  w cX    e cXw nXq q nX$ $ vXq cX      MXnXq q q nXvX8 8 7 $ bX0 w   cXcXw 0 bX8 7 7 6 ",
"bXvXnXq w   e nXcX    e w w q vX$ $ 8 bX7 6 e   cXnXcXcXcXcXe e MXq q nXw   cX  cXw w w MXnX0 $ $ bXvX0 nXq   cXw MX$ 8 bX7 8 bX",
"nXnXw cX    cXcXcX    cXw e w MXMXMXnXvX$ 8 w   cXnXcXcXw cXw cXcXe q w cXw $ w   cXe w w MXq $ 0 nXMXw w w   cXe e q vXbX$ vXnX",
"w e   cX          w cX  cXcXe w w w q q q nXcX    q cX  cXcXcX    cXcX    w 8       cXe w w w q nXMXe cXe w     cXe MXnXMXq q w ",
"    cXw cXcXcXe   cXw     cX  w w w w w w cX                            cXcX        cXcXcXw w w w w e e nXcXcX  cXcXe e cXe cXcX",
"cXw         cXcXcX    cXcXcXcXw w   cXcXcX          q nXvXcX            cXcXcXcX  cX            cXcXcXcXe   e w     cX    cX  cX",
"        cXw q 0 nXnXnXnXnXnXnXnXMXcX              cX  cXe                                   e L.mXnXcX  cXe mXmX0 0 0 0 L.      ",
"      cXcXw q w q 0 q w w MXnXnXnXe       cXcX  cXcX        w mX0 0 w   cX  cXL.mXmXe     cX$ bX0 0 $ L.cXL.0 0 8 $ bX$ q cX    ",
"  cX        cXcXcXe e w w w w w w       cXnXcX  cXcXcX      w MXcX        cXcXcXe L.e     L.nXmXw mX0 mXcXe mXnX$ 0 0 q mXcX    ",
"    q MXcX    cXcXcXe w w w MXe cXcX      w     cX      w   cX    w       cXcXcXcXcX      cXe cXcXcXcXcX      e mXmXw cXcX  cXcX",
"    cXcX                cXcXcX            w             q cXcXcXw w                                       cXcX    cX  cX        "
};
