/* XPM */
static char *sword[]={
"20 20 7 1",
". c None",
"c c #0058c0",
"d c #0080ff",
"# c #00ff00",
"e c #ff0000",
"a c #ffff00",
"b c #ffffc0",
"....................",
".###................",
".#ab#...............",
".#bab#..............",
"..#bab#.............",
"...#bab#............",
"....#bab#...........",
".....#bab#..........",
"......#bab#.........",
".......#bab#..cc....",
"........#bab#ccc....",
".........#baccc.....",
"..........#cccd.....",
"..........cccedd....",
".........cccddedd...",
".........cc..ddedd..",
"..............ddedd.",
"...............ddde.",
"................dee.",
".................ee."};